<svg xmlns="http://www.w3.org/2000/svg" width="26" height="18" viewBox="0 0 26 18">
  <g id="Inventory_Icon" data-name="Inventory Icon" transform="translate(6989 191)">
    <rect id="Rectangle_1611" data-name="Rectangle 1611" width="24" height="2" transform="translate(-6989 -175)" fill="#fc9200"/>
    <rect id="Rectangle_1613" data-name="Rectangle 1613" width="11" height="2" transform="translate(-6976 -175)" fill="#f06c11"/>
    <rect id="Rectangle_1614" data-name="Rectangle 1614" width="2" height="14" transform="translate(-6965 -187)" fill="#f06c11"/>
    <rect id="Rectangle_1615" data-name="Rectangle 1615" width="2" height="10" transform="translate(-6989 -183)" fill="#ffb700"/>
    <rect id="Rectangle_1616" data-name="Rectangle 1616" width="2" height="2" transform="translate(-6989 -185)" fill="#ffea1e"/>
    <rect id="Rectangle_1617" data-name="Rectangle 1617" width="2" height="2" transform="translate(-6989 -187)" fill="#ffb700"/>
    <rect id="Rectangle_1618" data-name="Rectangle 1618" width="5" height="2" transform="translate(-6987 -183)" fill="#ffb700"/>
    <rect id="Rectangle_1635" data-name="Rectangle 1635" width="22" height="4" transform="translate(-6987 -179)" fill="#8f2c18"/>
    <rect id="Rectangle_1619" data-name="Rectangle 1619" width="2" height="2" transform="translate(-6982 -183)" fill="#ffea1e"/>
    <rect id="Rectangle_1636" data-name="Rectangle 1636" width="22" height="2" transform="translate(-6987 -181)" fill="#4d1e0c"/>
    <rect id="Rectangle_1620" data-name="Rectangle 1620" width="8" height="2" transform="translate(-6980 -181)" fill="#ffb700"/>
    <rect id="Rectangle_1626" data-name="Rectangle 1626" width="19" height="6" transform="translate(-6984 -189)" fill="#8f2c18"/>
    <rect id="Rectangle_1621" data-name="Rectangle 1621" width="2" height="2" transform="translate(-6980 -185)" fill="#ffea1e"/>
    <rect id="Rectangle_1622" data-name="Rectangle 1622" width="2" height="4" transform="translate(-6980 -183)" fill="#ffb700"/>
    <rect id="Rectangle_1623" data-name="Rectangle 1623" width="6" height="2" transform="translate(-6978 -185)" fill="#ffb700"/>
    <rect id="Rectangle_1624" data-name="Rectangle 1624" width="2" height="6" transform="translate(-6973 -185)" fill="#ffb700"/>
    <rect id="Rectangle_1625" data-name="Rectangle 1625" width="6" height="2" transform="translate(-6971 -183)" fill="#f06c11"/>
    <rect id="Rectangle_1627" data-name="Rectangle 1627" width="4" height="2" transform="translate(-6987 -185)" fill="#8f2c18"/>
    <rect id="Rectangle_1628" data-name="Rectangle 1628" width="2" height="2" transform="translate(-6985 -187)" fill="#8f2c18"/>
    <rect id="Rectangle_1629" data-name="Rectangle 1629" width="2" height="2" transform="translate(-6987 -187)" fill="#bf361b"/>
    <rect id="Rectangle_1630" data-name="Rectangle 1630" width="2" height="2" transform="translate(-6985 -189)" fill="#bf361b"/>
    <rect id="Rectangle_1631" data-name="Rectangle 1631" width="2" height="2" transform="translate(-6987 -189)" fill="#8f2c18"/>
    <rect id="Rectangle_1632" data-name="Rectangle 1632" width="2" height="2" transform="translate(-6985 -191)" fill="#5b220f"/>
    <rect id="Rectangle_1633" data-name="Rectangle 1633" width="2" height="2" transform="translate(-6983 -191)" fill="#bf361b"/>
    <rect id="Rectangle_1634" data-name="Rectangle 1634" width="14" height="2" transform="translate(-6981 -191)" fill="#5b220f"/>
    <rect id="Rectangle_1637" data-name="Rectangle 1637" width="5" height="2" transform="translate(-6978 -183)" fill="#4d1e0c"/>
  </g>
</svg>
